<?xml version="1.0" encoding="utf-8"?>
<!-- Generator: Adobe Illustrator 22.1.0, SVG Export Plug-In . SVG Version: 6.00 Build 0)  -->
<svg version="1.1" id="Layer_1" xmlns="http://www.w3.org/2000/svg" xmlns:xlink="http://www.w3.org/1999/xlink" x="0px" y="0px"
	 viewBox="0 0 220 35" style="enable-background:new 0 0 220 35;" xml:space="preserve">
<style type="text/css">
	.st0{fill:#0078BF;}
	.st1{fill:#00843D;}
	.st2{fill:#4B4B45;}
</style>
<title>logo-ccf</title>
<metadata><?xpacket begin="﻿" id="W5M0MpCehiHzreSzNTczkc9d"?>
<x:xmpmeta xmlns:x="adobe:ns:meta/" x:xmptk="Adobe XMP Core 5.6-c143 79.161356, 2017/09/07-01:11:22        ">
   <rdf:RDF xmlns:rdf="http://www.w3.org/1999/02/22-rdf-syntax-ns#">
      <rdf:Description rdf:about=""
            xmlns:dc="http://purl.org/dc/elements/1.1/">
         <dc:title>
            <rdf:Alt>
               <rdf:li xml:lang="x-default">logo-ccf</rdf:li>
            </rdf:Alt>
         </dc:title>
      </rdf:Description>
   </rdf:RDF>
</x:xmpmeta>
                                                                                                    
                                                                                                    
                                                                                                    
                                                                                                    
                                                                                                    
                                                                                                    
                                                                                                    
                                                                                                    
                                                                                                    
                                                                                                    
                                                                                                    
                                                                                                    
                                                                                                    
                                                                                                    
                                                                                                    
                                                                                                    
                                                                                                    
                                                                                                    
                                                                                                    
                                                                                                    
                           
<?xpacket end="w"?></metadata>
<g>
	<path class="st0" d="M26.6,10.2v5.9h5.2c1.4,0,2.5-1.1,2.5-2.5V2.5c0-1.4-1.1-2.5-2.5-2.5H20.7c-1.4,0-2.5,1.1-2.5,2.5v5.2h5.9
		C25.5,7.7,26.6,8.9,26.6,10.2z M7.7,10.2v5.9H2.5C1.1,16.1,0,15,0,13.6V2.5C0,1.1,1.1,0,2.5,0h11.1c1.4,0,2.5,1.1,2.5,2.5v5.2h-5.9
		C8.9,7.7,7.7,8.9,7.7,10.2z"/>
	<path class="st1" d="M7.7,24.1v-5.9H2.5c-1.4,0-2.5,1.1-2.5,2.5v11.1c0,1.4,1.1,2.5,2.5,2.5h11.1c1.4,0,2.5-1.1,2.5-2.5v-5.2h-5.9
		C8.9,26.6,7.7,25.5,7.7,24.1z M26.6,24.1v-5.9h5.2c1.4,0,2.5,1.1,2.5,2.5v11.1c0,1.4-1.1,2.5-2.5,2.5H20.7c-1.4,0-2.5-1.1-2.5-2.5
		v-5.2h5.9C25.5,26.6,26.6,25.5,26.6,24.1z"/>
	<path class="st2" d="M94.2,25.9L94.2,25.9v-0.1V25.9z M56.9,20.7c-0.6,3.9-3.2,6.2-7.1,6.2c-5.4,0-7.8-5-7.8-9.7
		c0-4.8,2.4-9.7,7.8-9.7c3.9,0,6.5,2.2,7.1,6.2l-3.6,0.5c-0.4-2-1.2-3.7-3.5-3.7c-3.2,0-3.9,4.3-3.9,6.7s0.7,6.7,3.9,6.7
		c2.3,0,3.2-1.8,3.5-3.7L56.9,20.7z M59.1,7.7h3.6v18.9h-3.6V7.7z M73.3,18.4c0-1.5-0.6-3-2.3-3c-1.6,0-2.3,1.6-2.3,3H73.3z
		 M68.5,20.7c-0.1,1.6,0.8,3.6,2.7,3.6c1.1,0,1.9-0.7,2.3-2l3.4,0.4c-0.8,2.7-3.4,4.2-5.9,4.2c-4,0-6-3.5-6-7.1s2-7.1,6-7.1
		c3.4,0,6,1.6,5.9,7.9h-8.4V20.7z"/>
	<path class="st2" d="M98.8,18.4c0-1.5-0.6-3-2.3-3c-1.6,0-2.3,1.6-2.3,3H98.8z M94,20.7c-0.1,1.6,0.8,3.6,2.7,3.6
		c1.1,0,1.9-0.7,2.3-2l3.4,0.4c-0.8,2.7-3.4,4.2-5.9,4.2c-4,0-6-3.5-6-7.1s2-7.1,6-7.1c3.4,0,6,1.6,5.9,7.9H94V20.7z M85.7,26.6
		h-3.8L77.7,13h3.7l2.4,10h0.1l2.3-10h3.6L85.7,26.6z M104.7,7.7h3.6v18.9h-3.6V7.7z M118.4,20.4c-1.5,0.3-4.4,0.4-4.4,2.4
		c0,0.8,0.4,1.5,1.2,1.5c1.5,0,2.5-0.9,3.2-1.8C118.4,22.5,118.4,20.4,118.4,20.4z M118.6,25.3c-1.3,0.9-2.2,1.5-3.9,1.5
		c-2.4,0-4.3-1.6-4.3-4c0-3.8,5-4.6,7.9-4.9c0.2-1.9-0.4-2.6-1.7-2.6c-1.1,0-2,0.5-2.2,1.7l-3.4-0.5c0.8-2.9,2.7-3.8,5.6-3.8
		c3.7,0,5.3,1.7,5.3,4.3v6.7c0,1,0,1.9,0.5,2.8H119C118.7,26,118.6,25.3,118.6,25.3z M128.5,14.4c1.1-0.9,2.5-1.7,4.1-1.7
		c1.5,0,3.6,0.9,3.6,4.2v9.6h-3.6v-8.2c0-1.1,0.1-2.8-1.5-2.8c-1,0-1.9,0.8-2.5,1.5v9.5H125V13h3.6v1.4H128.5L128.5,14.4z
		 M173.1,20.7c-0.6,3.9-3.2,6.2-7.1,6.2c-5.4,0-7.8-5-7.8-9.7c0-4.8,2.4-9.7,7.8-9.7c3.9,0,6.5,2.2,7.1,6.2l-3.6,0.5
		c-0.4-2-1.2-3.7-3.5-3.7c-3.2,0-3.9,4.3-3.9,6.7s0.7,6.7,3.9,6.7c2.3,0,3.2-1.8,3.5-3.7L173.1,20.7z M175.3,7.7h3.6v18.9h-3.6V7.7z
		 M185.5,26.6h-3.6V13h3.6V26.6z M185.5,11h-3.6V7.7h3.6V11z M192,14.4c1.1-0.9,2.5-1.7,4-1.7s3.6,0.9,3.6,4.2v9.6H196v-8.2
		c0-1.1,0.1-2.8-1.5-2.8c-1,0-1.9,0.8-2.5,1.5v9.5h-3.6V13h3.6V14.4L192,14.4z M206.1,26.6h-3.6V13h3.6V26.6z M206.1,11h-3.6V7.7
		h3.6V11z M220,22.2c-0.6,2.8-2.6,4.7-5.7,4.7c-4,0-6-3.5-6-7.1s2-7.1,6-7.1c3,0,5.1,1.8,5.7,4.7l-3.3,0.4c-0.2-1.1-0.6-2.5-2.4-2.5
		c-1.9,0-2.3,2.7-2.3,4.4c0,1.7,0.3,4.4,2.3,4.4c1.8,0,2.1-1.2,2.4-2.5L220,22.2z M146.9,22.3c-0.6,0.8-1.3,1.6-2.3,1.6
		c-2.2,0-2.5-2.6-2.5-4.2c0-1.5,0.4-4,2.4-4c1,0,1.8,0.7,2.4,1.5L146.9,22.3L146.9,22.3z M150.5,24.2V7.7h-3.6v6.6
		c-1-0.9-1.9-1.6-3.3-1.6c-2,0-5,1.7-5,6.7c0,5.7,2.5,7.4,5.3,7.4c1.5,0,2.3-0.5,3.4-1.5c0,0,0.1,0.7,0.4,1.2h3.3
		C150.6,25.8,150.5,25,150.5,24.2L150.5,24.2z"/>
</g>
</svg>
